<svg xmlns="http://www.w3.org/2000/svg" width="24" height="24"
     viewBox="0 0 24 24">
    <g fill="none" fillRule="evenodd" transform="translate(-1 -1)">
        <path fill="#fff"
              d="M10.2 3.623c1.568-2.915 4.106-2.92 5.676 0l8.472 15.764c1.567 2.916.15 5.28-3.163 5.28H4.892c-3.314 0-4.733-2.36-3.163-5.28L10.2 3.623z"/>
        <ellipse cx="13" cy="20.022" fill="#b73c8e" rx="1.529" ry="1.548" />
        <path fill="#b73c8e"
              d="M11.592 9.106c-.067-.813.527-1.472 1.354-1.472h.108c.815 0 1.422.654 1.354 1.472l-.561 6.825c-.046.549-.533.994-1.077.994h.46c-.55 0-1.032-.448-1.077-.994l-.561-6.825z"/>
    </g>
</svg>
