<svg xmlns="http://www.w3.org/2000/svg" xmlns:xlink="http://www.w3.org/1999/xlink" width="413" height="71" viewBox="0 0 413 71">
    <defs>
        <path id="a" d="M0 70.601h412.726V.363H0z"/>
    </defs>
    <g fill="none" fillRule="evenodd" transform="translate(0 .036)">
        <mask id="b" fill="#fff">
            <use xlink:href="#a"/>
        </mask>
        <path fill="#FFF" d="M325.69 31.747h-7.503v23.91H306.18v-23.91h-4.5v-8.966h4.5v-8.966h12.007v8.966h7.503zM138.097.363c-4.974 0-9.007 4.015-9.007 8.968s4.033 8.97 9.007 8.97c4.975 0 9.006-4.017 9.006-8.97S143.072.363 138.097.363zM132.091 55.66H144.1V22.78H132.09zM182.784 27.403c-1.891-3.58-5.621-5.37-10.26-5.37-4.503 0-8.036 1.637-10.572 4.91v-4.162h-11.85v32.876h12.005v-15.96c-.185-2.637.467-4.67 1.773-6.103 1.124-1.25 2.543-1.875 4.254-1.875 1.756 0 2.973.78 3.647 2.346.361.849.54 2.102.54 3.755v17.84h12.286V36.731c0-3.892-.609-7.003-1.823-9.329M296.842 27.403c-1.89-3.58-5.621-5.37-10.258-5.37-4.505 0-8.037 1.637-10.574 4.91v-4.162h-11.85v32.876h12.006v-15.96c-.185-2.637.466-4.67 1.772-6.103 1.124-1.25 2.544-1.875 4.255-1.875 1.755 0 2.972.78 3.647 2.346.361.849.54 2.102.54 3.755v17.84h12.285V36.731c0-3.892-.608-7.003-1.823-9.329M218.562 45.122c0 3.277-1.132 5.91-3.396 7.902-2.65 2.346-6.672 3.52-12.066 3.52-5.636 0-10.356-1.11-14.16-3.33l3.539-8.054c1.492.889 3.058 1.61 4.696 2.164 1.636.556 3.323.832 5.06.832 1.347 0 2.299-.22 2.852-.664.555-.443.831-.973.831-1.594 0-1.283-1.01-2.124-3.034-2.522a598.457 598.457 0 0 1-3.252-.531c-3.18-.663-5.564-1.738-7.153-3.22-1.59-1.485-2.385-3.575-2.385-6.276 0-3.274 1.11-5.908 3.325-7.899 2.504-2.258 6.166-3.39 10.981-3.39 2.699 0 5.25.269 7.659.801 1.88.4 3.878 1.065 5.998 1.996l-3.975 7.39c-1.443-.865-2.852-1.501-4.224-1.913-1.373-.41-2.64-.616-3.795-.616-1.59 0-2.674.354-3.25 1.061a2.597 2.597 0 0 0-.579 1.661c0 .93.384 1.583 1.155 1.958.77.377 2.577.72 5.419 1.03 2.842.31 5.18 1.305 7.008 2.987 1.832 1.684 2.746 3.92 2.746 6.707M248.437 35.51c0-1.757-.627-3.273-1.878-4.548-1.253-1.273-2.988-1.91-5.204-1.91-2.07 0-3.768.626-5.093 1.878-1.325 1.254-1.985 2.779-1.985 4.58h14.16zm12.138 6.322h-26.587c0 2.219.636 4.061 1.913 5.524 1.276 1.466 3.143 2.198 5.6 2.198 3.757 0 5.972-1.33 6.648-3.994h12.138c-1.35 3.638-3.625 6.38-6.828 8.22-3.204 1.843-7.19 2.765-11.958 2.765-5.636 0-10.214-1.464-13.73-4.386-3.756-3.146-5.633-7.44-5.633-12.89 0-5.137 1.72-9.29 5.166-12.457 3.443-3.166 8.126-4.751 14.051-4.751 7.324 0 12.599 2.39 15.826 7.166 2.263 3.361 3.394 7.563 3.394 12.605zM352.705 22.104a17.337 17.337 0 0 0-1.641-.075c-1.668.007-3.195.34-4.653 1.022-1.917.864-3.49 2.203-4.72 4.02v-4.292h-11.497v32.878h12.005V41.65c-.03-2.768.733-5.03 2.261-6.778 1.53-1.749 3.73-2.624 6.604-2.624.501 0 1.037.047 1.608.136l.033.007V22.104zM412.726 48.185c0 4.953-4.03 8.969-9.006 8.969-4.974 0-9.006-4.016-9.006-8.969 0-4.952 4.032-8.968 9.006-8.968 4.975 0 9.006 4.016 9.006 8.968M398.336 22.773L374.07 70.601h-12.933l10.375-19.688-16.287-28.14h13.891l9.101 17.646 7.732-17.646zM54.04 1.841C24.195 1.841 0 25.932 0 55.651h12.01v-.002c0-23.115 18.817-41.852 42.03-41.852s42.032 18.737 42.032 41.852v.002h12.008c0-29.719-24.194-53.81-54.04-53.81" mask="url(#b)"/>
        <path fill="#FFF" d="M54.04 43.69c-23.212 0-42.03-18.735-42.03-41.849H0c0 29.719 24.195 53.81 54.04 53.81 29.846 0 54.04-24.091 54.04-53.81H96.072c-.001 23.114-18.819 41.85-42.032 41.85" mask="url(#b)"/>
        <path fill="#FFF" d="M54.04 37.717c-4.973 0-9.007-4.016-9.007-8.969 0-4.952 4.034-8.969 9.007-8.969 4.975 0 9.007 4.017 9.007 8.97 0 4.952-4.032 8.968-9.007 8.968M54.038 7.82c-11.607 0-21.015 9.369-21.015 20.927 0 11.557 9.408 20.926 21.015 20.926 11.607 0 21.016-9.37 21.016-20.926 0-11.558-9.41-20.927-21.016-20.927" mask="url(#b)"/>
    </g>
</svg>
